<?xml version="1.0" encoding="utf-8"?>
<!-- Generator: Adobe Illustrator 25.2.1, SVG Export Plug-In . SVG Version: 6.00 Build 0)  -->
<svg version="1.1" id="Layer_1" xmlns="http://www.w3.org/2000/svg" xmlns:xlink="http://www.w3.org/1999/xlink" x="0px" y="0px"
	 viewBox="0 0 5000 4000" style="enable-background:new 0 0 5000 4000;" xml:space="preserve">
<style type="text/css">
	.st0{fill:#FF5873;}
	.st1{fill:#2D02A7;}
	.st2{fill:#25BEEF;}
	.st3{fill:#FFFFFF;}
	.st4{fill:#CEEDFF;}
	.st5{fill:#0871F7;}
</style>
<g>
	<circle class="st0" cx="3516.07" cy="891.29" r="73.29"/>
</g>
<g>
	<path class="st1" d="M3999.21,2055.88c-1.46,0-2.79-0.97-3.18-2.46l-94.7-368.08c-62.32-242.31-280.59-411.54-530.8-411.54
		c-1.82,0-3.28-1.47-3.28-3.28s1.46-3.28,3.28-3.28c253.18,0,474.09,171.25,537.15,416.45l94.7,368.08c0.46,1.77-0.61,3.53-2.36,4
		C3999.75,2055.85,3999.46,2055.88,3999.21,2055.88z"/>
</g>
<g>
	<path class="st1" d="M4248.34,1845.21V1653.6c0-41.84-34.04-75.89-75.9-75.89H3748.9c-1.82,0-3.28,1.47-3.28,3.28v1228.39
		c0,1.82,1.46,3.28,3.28,3.28h423.55c1.82,0,3.28-1.46,3.28-3.28v-69.42c40.34-1.72,72.62-35.07,72.62-75.82v-191.6
		c0-40.75-32.27-74.11-72.62-75.82v-66.22c40.34-1.72,72.62-35.07,72.62-75.82v-191.6c0-40.75-32.27-74.11-72.62-75.82v-66.2
		C4216.07,1919.32,4248.34,1885.97,4248.34,1845.21z"/>
	<g>
		<path class="st2" d="M3785.21,2327.29h387.23c40.1,0,72.62-32.51,72.62-72.61v-191.61c0-40.1-32.51-72.62-72.62-72.62h-387.23
			V2327.29z"/>
		<path class="st1" d="M4172.45,2330.57h-387.23c-1.82,0-3.28-1.46-3.28-3.28v-336.84c0-1.82,1.46-3.28,3.28-3.28h387.23
			c41.86,0,75.9,34.04,75.9,75.9v191.6C4248.34,2296.53,4214.3,2330.57,4172.45,2330.57z M3788.5,2324.02h383.95
			c38.24,0,69.34-31.1,69.34-69.34v-191.6c0-38.24-31.1-69.34-69.34-69.34H3788.5V2324.02z"/>
	</g>
	<g>
		<path class="st2" d="M3785.21,1917.83h387.23c40.1,0,72.62-32.51,72.62-72.61V1653.6c0-40.1-32.51-72.61-72.62-72.61h-387.23
			V1917.83z"/>
		<path class="st1" d="M4172.45,1921.11h-387.23c-1.82,0-3.28-1.47-3.28-3.28v-336.84c0-1.81,1.46-3.28,3.28-3.28h387.23
			c41.86,0,75.9,34.04,75.9,75.89v191.62C4248.34,1887.07,4214.3,1921.11,4172.45,1921.11z M3788.5,1914.56h383.95
			c38.24,0,69.34-31.11,69.34-69.34V1653.6c0-38.23-31.1-69.33-69.34-69.33H3788.5V1914.56z"/>
	</g>
	<g>
		<path class="st2" d="M3785.21,2736.75h387.23c40.1,0,72.62-32.51,72.62-72.61v-191.61c0-40.1-32.51-72.61-72.62-72.61h-387.23
			V2736.75z"/>
		<path class="st1" d="M4172.45,2740.04h-387.23c-1.82,0-3.28-1.46-3.28-3.28v-336.84c0-1.82,1.46-3.28,3.28-3.28h387.23
			c41.86,0,75.9,34.04,75.9,75.9v191.6C4248.34,2705.99,4214.3,2740.04,4172.45,2740.04z M3788.5,2733.48h383.95
			c38.24,0,69.34-31.1,69.34-69.34v-191.6c0-38.24-31.1-69.34-69.34-69.34H3788.5V2733.48z"/>
	</g>
	<g>
		<g>
			<path class="st3" d="M3095.37,1917.83h689.84c40.1,0,72.61-32.51,72.61-72.61V1653.6c0-40.1-32.51-72.61-72.61-72.61h-689.84
				c-40.1,0-72.61,32.51-72.61,72.61v191.61C3022.75,1885.32,3055.26,1917.83,3095.37,1917.83z"/>
			<path class="st1" d="M3785.22,1921.11h-689.85c-41.86,0-75.9-34.04-75.9-75.9V1653.6c0-41.84,34.04-75.89,75.9-75.89h689.85
				c41.83,0,75.87,34.04,75.87,75.89v191.62C3861.09,1887.07,3827.05,1921.11,3785.22,1921.11z M3095.37,1584.27
				c-38.24,0-69.34,31.1-69.34,69.33v191.62c0,38.23,31.1,69.34,69.34,69.34h689.85c38.22,0,69.32-31.11,69.32-69.34V1653.6
				c0-38.23-31.1-69.33-69.32-69.33H3095.37z"/>
		</g>
		<g>
			<path class="st3" d="M3095.37,2327.29h689.84c40.1,0,72.61-32.51,72.61-72.61v-191.61c0-40.1-32.51-72.62-72.61-72.62h-689.84
				c-40.1,0-72.61,32.51-72.61,72.62v191.61C3022.75,2294.78,3055.26,2327.29,3095.37,2327.29z"/>
			<path class="st1" d="M3785.22,2330.57h-689.85c-41.86,0-75.9-34.04-75.9-75.9v-191.6c0-41.86,34.04-75.9,75.9-75.9h689.85
				c41.83,0,75.87,34.04,75.87,75.9v191.6C3861.09,2296.53,3827.05,2330.57,3785.22,2330.57z M3095.37,1993.73
				c-38.24,0-69.34,31.1-69.34,69.34v191.6c0,38.24,31.1,69.34,69.34,69.34h689.85c38.22,0,69.32-31.1,69.32-69.34v-191.6
				c0-38.24-31.1-69.34-69.32-69.34H3095.37z"/>
		</g>
		<g>
			<path class="st3" d="M3095.37,2736.75h689.84c40.1,0,72.61-32.51,72.61-72.61v-191.61c0-40.1-32.51-72.61-72.61-72.61h-689.84
				c-40.1,0-72.61,32.51-72.61,72.61v191.61C3022.75,2704.24,3055.26,2736.75,3095.37,2736.75z"/>
			<path class="st1" d="M3785.22,2740.04h-689.85c-41.86,0-75.9-34.04-75.9-75.9v-191.6c0-41.86,34.04-75.9,75.9-75.9h689.85
				c41.83,0,75.87,34.04,75.87,75.9v191.6C3861.09,2705.99,3827.05,2740.04,3785.22,2740.04z M3095.37,2403.19
				c-38.24,0-69.34,31.1-69.34,69.34v191.6c0,38.24,31.1,69.34,69.34,69.34h689.85c38.22,0,69.32-31.1,69.32-69.34v-191.6
				c0-38.24-31.1-69.34-69.32-69.34H3095.37z"/>
		</g>
		<g>
			<circle class="st2" cx="3730.75" cy="1816.99" r="14.52"/>
		</g>
		<g>
			<circle class="st2" cx="3694.44" cy="1780.68" r="14.52"/>
		</g>
		<g>
			<circle class="st2" cx="3730.75" cy="1744.37" r="14.52"/>
		</g>
		<g>
			<circle class="st2" cx="3658.13" cy="1816.99" r="14.52"/>
		</g>
		<g>
			<circle class="st2" cx="3658.13" cy="1744.37" r="14.52"/>
		</g>
		<g>
			<circle class="st2" cx="3694.44" cy="1708.06" r="14.52"/>
		</g>
		<g>
			<circle class="st2" cx="3730.75" cy="1671.76" r="14.52"/>
		</g>
		<g>
			<circle class="st2" cx="3658.13" cy="1671.76" r="14.52"/>
		</g>
		<g>
			<circle class="st2" cx="3621.82" cy="1780.68" r="14.52"/>
		</g>
		<g>
			<circle class="st2" cx="3585.52" cy="1816.99" r="14.52"/>
		</g>
		<g>
			<circle class="st2" cx="3585.52" cy="1744.37" r="14.52"/>
		</g>
		<g>
			<circle class="st2" cx="3621.82" cy="1708.06" r="14.52"/>
		</g>
		<g>
			<circle class="st2" cx="3585.52" cy="1671.76" r="14.52"/>
		</g>
		<g>
			<circle class="st2" cx="3549.21" cy="1780.68" r="14.52"/>
		</g>
		<g>
			<circle class="st2" cx="3512.9" cy="1816.99" r="14.52"/>
		</g>
		<g>
			<circle class="st2" cx="3512.9" cy="1744.37" r="14.52"/>
		</g>
		<g>
			<circle class="st2" cx="3549.21" cy="1708.06" r="14.52"/>
		</g>
		<g>
			<circle class="st2" cx="3512.9" cy="1671.76" r="14.52"/>
		</g>
		<g>
			<circle class="st2" cx="3476.59" cy="1780.68" r="14.52"/>
		</g>
		<g>
			<circle class="st2" cx="3440.29" cy="1816.99" r="14.52"/>
		</g>
		<g>
			<circle class="st2" cx="3440.29" cy="1744.37" r="14.52"/>
		</g>
		<g>
			<circle class="st2" cx="3476.59" cy="1708.06" r="14.52"/>
		</g>
		<g>
			<circle class="st2" cx="3440.29" cy="1671.76" r="14.52"/>
		</g>
		<g>
			<circle class="st2" cx="3730.75" cy="2226.45" r="14.52"/>
		</g>
		<g>
			<circle class="st2" cx="3694.44" cy="2190.14" r="14.52"/>
		</g>
		<g>
			<circle class="st2" cx="3730.75" cy="2153.83" r="14.52"/>
		</g>
		<g>
			<circle class="st2" cx="3658.13" cy="2226.45" r="14.52"/>
		</g>
		<g>
			<circle class="st2" cx="3658.13" cy="2153.83" r="14.52"/>
		</g>
		<g>
			<circle class="st2" cx="3694.44" cy="2117.52" r="14.52"/>
		</g>
		<g>
			<circle class="st2" cx="3730.75" cy="2081.22" r="14.52"/>
		</g>
		<g>
			<circle class="st2" cx="3658.13" cy="2081.22" r="14.52"/>
		</g>
		<g>
			<circle class="st2" cx="3621.82" cy="2190.14" r="14.52"/>
		</g>
		<g>
			<circle class="st2" cx="3585.52" cy="2226.45" r="14.52"/>
		</g>
		<g>
			<circle class="st2" cx="3585.52" cy="2153.83" r="14.52"/>
		</g>
		<g>
			<circle class="st2" cx="3621.82" cy="2117.52" r="14.52"/>
		</g>
		<g>
			<circle class="st2" cx="3585.52" cy="2081.22" r="14.52"/>
		</g>
		<g>
			<circle class="st2" cx="3549.21" cy="2190.14" r="14.52"/>
		</g>
		<g>
			<circle class="st2" cx="3512.9" cy="2226.45" r="14.52"/>
		</g>
		<g>
			<circle class="st2" cx="3512.9" cy="2153.83" r="14.52"/>
		</g>
		<g>
			<circle class="st2" cx="3549.21" cy="2117.52" r="14.52"/>
		</g>
		<g>
			<circle class="st2" cx="3512.9" cy="2081.22" r="14.52"/>
		</g>
		<g>
			<circle class="st2" cx="3476.59" cy="2190.14" r="14.52"/>
		</g>
		<g>
			<circle class="st2" cx="3440.29" cy="2226.45" r="14.52"/>
		</g>
		<g>
			<circle class="st2" cx="3440.29" cy="2153.83" r="14.52"/>
		</g>
		<g>
			<circle class="st2" cx="3476.59" cy="2117.52" r="14.52"/>
		</g>
		<g>
			<circle class="st2" cx="3440.29" cy="2081.22" r="14.52"/>
		</g>
		<g>
			<circle class="st2" cx="3730.75" cy="2635.91" r="14.52"/>
		</g>
		<g>
			<circle class="st2" cx="3694.44" cy="2599.6" r="14.52"/>
		</g>
		<g>
			<circle class="st2" cx="3730.75" cy="2563.29" r="14.52"/>
		</g>
		<g>
			<circle class="st2" cx="3658.13" cy="2635.91" r="14.52"/>
		</g>
		<g>
			<circle class="st2" cx="3658.13" cy="2563.29" r="14.52"/>
		</g>
		<g>
			<circle class="st2" cx="3694.44" cy="2526.98" r="14.52"/>
		</g>
		<g>
			<circle class="st2" cx="3730.75" cy="2490.68" r="14.52"/>
		</g>
		<g>
			<circle class="st2" cx="3658.13" cy="2490.68" r="14.52"/>
		</g>
		<g>
			<circle class="st2" cx="3621.82" cy="2599.6" r="14.52"/>
		</g>
		<g>
			<circle class="st2" cx="3585.52" cy="2635.91" r="14.52"/>
		</g>
		<g>
			<circle class="st2" cx="3585.52" cy="2563.29" r="14.52"/>
		</g>
		<g>
			<circle class="st2" cx="3621.82" cy="2526.98" r="14.52"/>
		</g>
		<g>
			<circle class="st2" cx="3585.52" cy="2490.68" r="14.52"/>
		</g>
		<g>
			<circle class="st2" cx="3549.21" cy="2599.6" r="14.52"/>
		</g>
		<g>
			<circle class="st2" cx="3512.9" cy="2635.91" r="14.52"/>
		</g>
		<g>
			<circle class="st2" cx="3512.9" cy="2563.29" r="14.52"/>
		</g>
		<g>
			<circle class="st2" cx="3549.21" cy="2526.98" r="14.52"/>
		</g>
		<g>
			<circle class="st2" cx="3512.9" cy="2490.68" r="14.52"/>
		</g>
		<g>
			<circle class="st2" cx="3476.59" cy="2599.6" r="14.52"/>
		</g>
		<g>
			<circle class="st2" cx="3440.29" cy="2635.91" r="14.52"/>
		</g>
		<g>
			<circle class="st2" cx="3440.29" cy="2563.29" r="14.52"/>
		</g>
		<g>
			<circle class="st2" cx="3476.59" cy="2526.98" r="14.52"/>
		</g>
		<g>
			<circle class="st2" cx="3440.29" cy="2490.68" r="14.52"/>
		</g>
		<g>
			<path class="st2" d="M3149.83,2635.91L3149.83,2635.91c8.02,0,14.52-6.5,14.52-14.52V2505.2c0-8.02-6.5-14.52-14.52-14.52h0
				c-8.02,0-14.52,6.5-14.52,14.52v116.18C3135.3,2629.4,3141.81,2635.91,3149.83,2635.91z"/>
		</g>
		<g>
			<path class="st2" d="M3222.44,2635.91L3222.44,2635.91c8.02,0,14.52-6.5,14.52-14.52V2505.2c0-8.02-6.5-14.52-14.52-14.52h0
				c-8.02,0-14.52,6.5-14.52,14.52v116.18C3207.92,2629.4,3214.42,2635.91,3222.44,2635.91z"/>
		</g>
		<g>
			<path class="st2" d="M3149.83,2226.45L3149.83,2226.45c8.02,0,14.52-6.5,14.52-14.52v-116.18c0-8.02-6.5-14.52-14.52-14.52h0
				c-8.02,0-14.52,6.5-14.52,14.52v116.18C3135.3,2219.94,3141.81,2226.45,3149.83,2226.45z"/>
		</g>
		<g>
			<path class="st2" d="M3222.44,2226.45L3222.44,2226.45c8.02,0,14.52-6.5,14.52-14.52v-116.18c0-8.02-6.5-14.52-14.52-14.52h0
				c-8.02,0-14.52,6.5-14.52,14.52v116.18C3207.92,2219.94,3214.42,2226.45,3222.44,2226.45z"/>
		</g>
		<g>
			<path class="st2" d="M3149.83,1816.99L3149.83,1816.99c8.02,0,14.52-6.5,14.52-14.52v-116.18c0-8.02-6.5-14.52-14.52-14.52h0
				c-8.02,0-14.52,6.5-14.52,14.52v116.18C3135.3,1810.48,3141.81,1816.99,3149.83,1816.99z"/>
		</g>
		<g>
			<path class="st2" d="M3222.44,1816.99L3222.44,1816.99c8.02,0,14.52-6.5,14.52-14.52v-116.18c0-8.02-6.5-14.52-14.52-14.52h0
				c-8.02,0-14.52,6.5-14.52,14.52v116.18C3207.92,1810.48,3214.42,1816.99,3222.44,1816.99z"/>
		</g>
	</g>
	<g>
		<rect x="3110.48" y="2736.75" class="st2" width="704.81" height="72.61"/>
		<path class="st1" d="M3815.29,2812.66h-704.81c-1.82,0-3.28-1.46-3.28-3.28v-72.62c0-1.82,1.46-3.28,3.28-3.28h704.81
			c1.82,0,3.28,1.46,3.28,3.28v72.62C3818.57,2811.2,3817.11,2812.66,3815.29,2812.66z M3113.76,2806.1h698.25v-66.06h-698.25
			V2806.1z"/>
	</g>
	<g>
		<rect x="3110.48" y="2327.29" class="st2" width="704.81" height="72.61"/>
		<path class="st1" d="M3815.29,2403.19h-704.81c-1.82,0-3.28-1.46-3.28-3.28v-72.62c0-1.82,1.46-3.28,3.28-3.28h704.81
			c1.82,0,3.28,1.46,3.28,3.28v72.62C3818.57,2401.73,3817.11,2403.19,3815.29,2403.19z M3113.76,2396.64h698.25v-66.06h-698.25
			V2396.64z"/>
	</g>
	<g>
		<rect x="3110.48" y="1917.83" class="st2" width="704.81" height="72.61"/>
		<path class="st1" d="M3815.29,1993.73h-704.81c-1.82,0-3.28-1.46-3.28-3.28v-72.62c0-1.81,1.46-3.28,3.28-3.28h704.81
			c1.82,0,3.28,1.47,3.28,3.28v72.62C3818.57,1992.27,3817.11,1993.73,3815.29,1993.73z M3113.76,1987.17h698.25v-66.06h-698.25
			V1987.17z"/>
	</g>
</g>
<g>
	<g>
		<path class="st2" d="M1524.66,2809.37h171.15c166.87-231.05,250.73-534.41,250.73-837.34c0-303.79-83.44-607.15-250.73-839.05
			c-56.05,56.05-102.69,117.66-139.91,183.13l0,0c-71.88-12.83-162.16-12.83-234.04,0l0,0c-37.22-65.47-83.86-127.08-139.49-183.13
			c-167.3,231.9-250.73,535.27-250.73,839.05c0,302.93,83.86,606.29,250.73,837.34h171.15H1524.66z"/>
		<path class="st1" d="M1695.81,2812.66h-513.45c-1.05,0-2.04-0.51-2.66-1.36c-162.08-224.42-251.34-522.48-251.34-839.26
			c0-317.63,89.26-616.29,251.34-840.98c0.56-0.78,1.45-1.27,2.41-1.34c0.85-0.24,1.88,0.26,2.59,0.96
			c54.6,55.01,101.31,116.17,138.86,181.81c71.36-12.41,159.25-12.41,230.64,0c37.74-65.96,84.59-127.12,139.3-181.82
			c0.68-0.68,1.7-1.08,2.59-0.95c0.95,0.08,1.83,0.56,2.4,1.34c162.08,224.7,251.35,523.36,251.35,840.98
			c0,316.79-89.27,614.82-251.35,839.26C1697.85,2812.14,1696.86,2812.66,1695.81,2812.66z M1184.04,2806.1h510.09
			c160.67-223.16,249.14-519.3,249.14-834.06c0-314.79-87.99-610.77-247.87-834c-53.66,54.14-99.63,114.58-136.65,179.69
			c-0.69,1.19-2.1,1.87-3.43,1.6c-71.83-12.83-161.07-12.83-232.89,0c-1.36,0.27-2.75-0.4-3.43-1.6
			c-36.83-64.81-82.66-125.23-136.24-179.68c-159.84,223.21-247.84,519.21-247.84,833.99
			C934.92,2286.82,1023.38,2582.94,1184.04,2806.1z"/>
	</g>
	<g>
		<circle class="st3" cx="1583.82" cy="1605.26" r="77.02"/>
	</g>
	<g>
		<circle class="st3" cx="1293.98" cy="1605.26" r="77.02"/>
	</g>
	<g>
		<path class="st1" d="M1583.82,1685.57c-44.28,0-80.3-36.03-80.3-80.3c0-44.28,36.03-80.29,80.3-80.29s80.29,36.02,80.29,80.29
			C1664.11,1649.54,1628.1,1685.57,1583.82,1685.57z M1583.82,1531.53c-40.66,0-73.75,33.08-73.75,73.73
			c0,40.66,33.08,73.75,73.75,73.75c40.65,0,73.73-33.08,73.73-73.75C1657.55,1564.61,1624.47,1531.53,1583.82,1531.53z"/>
	</g>
	<g>
		<path class="st1" d="M1293.98,1685.57c-44.28,0-80.29-36.03-80.29-80.3c0-44.28,36.02-80.29,80.29-80.29s80.29,36.02,80.29,80.29
			C1374.27,1649.54,1338.26,1685.57,1293.98,1685.57z M1293.98,1531.53c-40.65,0-73.73,33.08-73.73,73.73
			c0,40.66,33.08,73.75,73.73,73.75s73.73-33.08,73.73-73.75C1367.72,1564.61,1334.63,1531.53,1293.98,1531.53z"/>
	</g>
	<g>
		<circle class="st1" cx="1608.5" cy="1634.45" r="20.54"/>
	</g>
	<g>
		<circle class="st1" cx="1318.66" cy="1634.45" r="20.54"/>
	</g>
	<g>
		<path class="st1" d="M1153.04,1354.32l76.6-11.28c6.53-0.96,9.9-8.34,6.35-13.9l-38.3-60.04c-3.74-5.86-12.4-5.54-15.69,0.59
			l-38.3,71.32C1140.16,1347.6,1145.64,1355.41,1153.04,1354.32z"/>
	</g>
	<g>
		<path class="st1" d="M1648.15,1343.04l76.6,11.28c7.4,1.09,12.89-6.72,9.35-13.31l-38.3-71.32c-3.29-6.13-11.95-6.45-15.69-0.59
			l-38.3,60.04C1638.26,1334.71,1641.62,1342.08,1648.15,1343.04z"/>
	</g>
	<g>
		<path class="st2" d="M681.33,2442.69c0,136.49,52.63,263.14,140.34,366.69h360.69c-166.87-231.05-250.73-534.41-250.73-837.34
			C778.03,2087.56,681.33,2255.71,681.33,2442.69z"/>
		<path class="st1" d="M1182.36,2812.66H821.67c-0.96,0-1.88-0.44-2.5-1.15c-92.33-108.97-141.13-236.51-141.13-368.81
			c0-180.51,91.72-353.03,251.62-473.27c0.99-0.74,2.34-0.87,3.43-0.33c1.11,0.56,1.82,1.69,1.82,2.95
			c0,315.43,88.82,612.1,250.11,835.42c0.72,1,0.82,2.31,0.26,3.41C1184.72,2811.96,1183.59,2812.66,1182.36,2812.66z M823.2,2806.1
			h352.77c-158.6-222.24-246.37-515.59-247.6-827.45c-155,118.8-243.77,287.58-243.77,464.05
			C684.61,2572.95,732.53,2698.59,823.2,2806.1z"/>
	</g>
	<g>
		<path class="st1" d="M1550.89,2812.66h-223.61c-1.81,0-3.28-1.46-3.28-3.28v-406.18c0-23.8,9.16-46.03,25.78-62.66
			c4.06-4.05,8.73-7.81,14.31-11.5c1.47-0.95,3.53-0.59,4.55,0.95c1,1.51,0.58,3.53-0.93,4.53c-5.19,3.43-9.54,6.92-13.28,10.66
			c-15.38,15.39-23.86,35.99-23.86,58.02v402.9h217.05v-402.9c0-27.54-13.88-53.2-37.12-68.6c-1.51-1-1.92-3.05-0.92-4.56
			c1-1.51,3.04-1.87,4.53-0.92c25.09,16.62,40.06,44.34,40.06,74.08v406.18C1554.17,2811.2,1552.7,2812.66,1550.89,2812.66z"/>
	</g>
	<g>
		<path class="st1" d="M1438.9,1896.36c-32.4,0-64.81-8.65-93.71-25.95c-1.55-0.93-2.05-2.95-1.13-4.51
			c0.94-1.58,2.91-2.05,4.51-1.13c55.71,33.38,124.95,33.38,180.67,0c1.56-0.92,3.56-0.45,4.51,1.13c0.92,1.56,0.42,3.57-1.13,4.51
			C1503.71,1887.71,1471.3,1896.36,1438.9,1896.36z"/>
	</g>
	<g>
		<g>
			<path class="st2" d="M532.46,2809.41h442.68c118.12,0,214.19-96.1,214.19-214.22s-96.08-214.22-214.19-214.22
				c-39.94,0-72.34,32.38-72.34,72.34s32.4,72.34,72.34,72.34c38.34,0,69.51,31.2,69.51,69.54s-31.18,69.54-69.51,69.54H532.46
				c-39.94,0-72.34,32.38-72.34,72.34S492.53,2809.41,532.46,2809.41z"/>
		</g>
		<g>
			<path class="st3" d="M902.8,2453.31c0,39.9,32.24,72.14,72.14,72.14c38.69,0,69.72,31.43,69.72,69.72
				c0-39.9,32.24-72.54,72.14-72.54c39.9,0,72.54,32.64,72.54,72.54c0-118.08-96.32-214.4-214.4-214.4
				C935.04,2380.77,902.8,2413.41,902.8,2453.31z"/>
			<path class="st1" d="M1189.34,2598.46c-1.81,0-3.28-1.46-3.28-3.28c0-38.19-31.07-69.26-69.26-69.26
				c-37.97,0-68.87,31.07-68.87,69.26c0,1.82-1.47,3.28-3.28,3.28s-3.28-1.46-3.28-3.28c0-36.63-29.8-66.45-66.43-66.45
				c-41.59,0-75.42-33.84-75.42-75.44c0-41.8,33.84-75.8,75.42-75.8c120.03,0,217.68,97.65,217.68,217.68
				C1192.62,2597,1191.15,2598.46,1189.34,2598.46z M974.94,2384.06c-37.97,0-68.87,31.07-68.87,69.24
				c0,37.99,30.89,68.88,68.87,68.88c32.62,0,60.32,21.52,69.64,51.1c9.38-31.15,38.21-53.92,72.22-53.92
				c28.23,0,52.9,15.5,65.95,38.45C1165.05,2459.16,1078.6,2384.06,974.94,2384.06z"/>
		</g>
		<g>
			<path class="st1" d="M975.14,2812.68H532.46c-41.69,0-75.62-33.91-75.62-75.62s33.93-75.62,75.62-75.62h442.67
				c36.53,0,66.24-29.74,66.24-66.27s-29.71-66.24-66.24-66.24c-41.69,0-75.62-33.94-75.62-75.64s33.93-75.62,75.62-75.62
				c119.92,0,217.47,97.57,217.47,217.5S1095.05,2812.68,975.14,2812.68z M532.46,2668.01c-38.08,0-69.06,30.97-69.06,69.06
				s30.98,69.06,69.06,69.06h442.67c116.29,0,210.92-94.62,210.92-210.94s-94.62-210.94-210.92-210.94
				c-38.08,0-69.06,30.97-69.06,69.06s30.98,69.08,69.06,69.08c40.14,0,72.8,32.66,72.8,72.8c0,40.16-32.66,72.82-72.8,72.82H532.46
				z"/>
		</g>
	</g>
	<g>
		<polygon class="st3" points="1507.56,1786.86 1515.37,1745.04 1499.75,1745.04 		"/>
	</g>
	<g>
		<polygon class="st3" points="1370.24,1786.86 1362.43,1745.04 1378.05,1745.04 		"/>
	</g>
	<g>
		<path class="st2" d="M1657.8,1585c-40.86-15.61-107.1-15.61-147.96,0c8.94-32.64,38.51-56.76,73.98-56.76
			C1619.29,1528.25,1648.86,1552.37,1657.8,1585z"/>
		<path class="st1" d="M1657.8,1588.28c-0.4,0-0.79-0.08-1.17-0.22c-40.14-15.32-105.47-15.32-145.64,0
			c-1.11,0.45-2.45,0.2-3.37-0.63c-0.91-0.83-1.28-2.11-0.96-3.3c9.54-34.82,41.27-59.16,77.15-59.16
			c35.87,0,67.6,24.33,77.14,59.16c0.32,1.19-0.05,2.47-0.96,3.3C1659.39,1587.98,1658.6,1588.28,1657.8,1588.28z M1583.82,1531.53
			c-30.78,0-58.24,19.52-68.85,48.18c39.55-12.86,98.15-12.86,137.7,0C1642.04,1551.05,1614.6,1531.53,1583.82,1531.53z"/>
	</g>
	<g>
		<path class="st2" d="M1367.96,1585c-40.86-15.61-107.1-15.61-147.96,0c8.94-32.64,38.51-56.76,73.98-56.76
			S1359.02,1552.37,1367.96,1585z"/>
		<path class="st1" d="M1367.96,1588.28c-0.4,0-0.79-0.08-1.17-0.22c-40.16-15.32-105.46-15.32-145.62,0
			c-1.09,0.45-2.43,0.2-3.37-0.63c-0.91-0.83-1.28-2.11-0.96-3.3c9.54-34.82,41.27-59.16,77.14-59.16
			c35.87,0,67.6,24.33,77.14,59.16c0.32,1.19-0.05,2.47-0.96,3.3C1369.55,1587.98,1368.77,1588.28,1367.96,1588.28z
			 M1293.98,1570.07c24.54,0,49.07,3.21,68.84,9.64c-10.62-28.66-38.06-48.18-68.84-48.18s-58.22,19.52-68.84,48.18
			C1244.92,1573.28,1269.44,1570.07,1293.98,1570.07z"/>
	</g>
	<path class="st1" d="M1675.73,1715.38c-0.95-1.56-2.96-2.04-4.51-1.13c-70.53,42.27-158.04,42.49-228.85,0.91v-18.29
		c14.37-5.03,28.28-18.8,31.97-32.73c-19.47-18.84-51.04-18.84-70.51,0c3.69,13.93,17.61,27.7,31.98,32.73v18.09
		c-70.88,41.79-158.57,41.62-229.23-0.71c-1.59-0.91-3.6-0.44-4.51,1.13c-0.92,1.56-0.42,3.57,1.13,4.51
		c36.62,21.91,77.64,32.88,118.69,32.88c40.42,0,80.82-10.75,117.01-32.02c36.2,21.26,76.58,32.02,117,32.02
		c41.05,0,82.08-10.96,118.7-32.88C1676.15,1718.96,1676.65,1716.95,1675.73,1715.38z"/>
</g>
<g>
	<path class="st1" d="M4395.35,2812.66H355.03c-1.81,0-3.28-1.46-3.28-3.28c0-1.82,1.47-3.28,3.28-3.28h4040.32
		c1.82,0,3.28,1.46,3.28,3.28C4398.63,2811.2,4397.17,2812.66,4395.35,2812.66z"/>
</g>
<path class="st1" d="M4392.38,2072.88h-147.31c-1.82,0-3.28,1.46-3.28,3.28s1.46,3.28,3.28,3.28h147.31
	c135.99,0,246.62,110.63,246.62,246.62s-110.63,246.62-246.62,246.62H4103c-1.82,0-3.28,1.46-3.28,3.28c0,1.82,1.46,3.28,3.28,3.28
	h289.38c139.6,0,253.18-113.58,253.18-253.18S4531.98,2072.88,4392.38,2072.88z"/>
<g>
	<path class="st1" d="M4066.3,2624.15c-22.03,0-39.96-21.62-39.96-48.18c0-26.56,17.93-48.18,39.96-48.18
		c22.05,0,39.99,21.62,39.99,48.18C4106.28,2602.53,4088.35,2624.15,4066.3,2624.15z M4066.3,2534.34
		c-18.42,0-33.4,18.67-33.4,41.62c0,22.95,14.99,41.62,33.4,41.62c18.44,0,33.43-18.67,33.43-41.62
		C4099.72,2553.02,4084.74,2534.34,4066.3,2534.34z"/>
</g>
<g>
	<ellipse class="st1" cx="4066.3" cy="2575.97" rx="20" ry="24.47"/>
</g>
<g>
	<path class="st4" d="M2510.66,2624.46h-314.57c-28.97,0-52.46-23.49-52.46-52.46v-314.57c0-28.97,23.49-52.46,52.46-52.46h314.57
		c28.97,0,52.46,23.49,52.46,52.46V2572C2563.12,2600.97,2539.63,2624.46,2510.66,2624.46z"/>
</g>
<g>
	<path class="st3" d="M2353.37,2545.98L2353.37,2545.98c-72.5,0-131.27-58.77-131.27-131.27v0c0-72.5,58.77-131.27,131.27-131.27h0
		c72.5,0,131.27,58.77,131.27,131.27v0C2484.64,2487.21,2425.87,2545.98,2353.37,2545.98z"/>
	<path class="st1" d="M2353.37,2549.25c-74.18,0-134.54-60.35-134.54-134.53c0-74.21,60.36-134.56,134.54-134.56
		s134.54,60.35,134.54,134.56C2487.91,2488.9,2427.55,2549.25,2353.37,2549.25z M2353.37,2286.72c-70.57,0-127.99,57.43-127.99,128
		s57.42,127.97,127.99,127.97s127.99-57.4,127.99-127.97S2423.94,2286.72,2353.37,2286.72z"/>
</g>
<g>
	<path class="st1" d="M2313.24,2462.83c-1.81,0-3.28-1.46-3.28-3.28v-89.68c0-1.82,1.47-3.28,3.28-3.28s3.28,1.46,3.28,3.28v89.68
		C2316.52,2461.37,2315.05,2462.83,2313.24,2462.83z"/>
</g>
<g>
	<path class="st1" d="M2393.5,2462.83c-1.81,0-3.28-1.46-3.28-3.28v-89.68c0-1.82,1.47-3.28,3.28-3.28s3.28,1.46,3.28,3.28v89.68
		C2396.78,2461.37,2395.3,2462.83,2393.5,2462.83z"/>
</g>
<polygon class="st2" points="2430.33,2052.91 2377.38,2052.91 2377.38,1947 2297.95,2079.38 2350.9,2079.38 2350.9,2185.29 "/>
<polygon class="st2" points="2512.63,2110.58 2431.62,2155.55 2459.14,2171.45 2427.36,2226.49 2508.37,2181.52 2480.85,2165.63 "/>
<polygon class="st2" points="2288.72,2141.79 2261.2,2157.68 2229.42,2102.64 2227.86,2195.28 2255.38,2179.39 2287.16,2234.43 "/>
<g>
	<path class="st1" d="M1292.05,1749.64c-38.83,29.61-68.02,71.82-80.96,121.68l-35.81,137.84c-0.45,1.74,0.6,3.53,2.36,4
		c1.7,0.51,3.53-0.59,4-2.36l35.81-137.84c13.26-51.05,44.13-93.75,84.95-122.63C1298.95,1750.03,1295.49,1750.1,1292.05,1749.64z"
		/>
	<path class="st1" d="M3370.53,1267.24c-259.97,0-488.08,184.52-542.41,438.77l-220.06,1029.78
		c-39.86,186.48-207.15,321.81-397.82,321.81c-194.42,0-362.38-138.55-399.37-329.41l-163.36-843.17
		c-10.61-54.77-40.93-101.57-82.58-133.95c-3.41,0.13-6.79,0.52-10.19,0.5c43.63,31.51,75.52,78.86,86.35,134.71l163.36,843.14
		c37.58,193.96,208.24,334.74,405.8,334.74c193.74,0,363.75-137.53,404.22-326.98l220.06-1029.79
		c53.69-251.24,279.11-433.58,536-433.58c1.82,0,3.28-1.47,3.28-3.28S3372.35,1267.24,3370.53,1267.24z"/>
</g>
<g>
	<path class="st3" d="M1178.78,2007.44c-35.77-6.83-70.31,16.63-77.15,52.4l-10.13,53.01l129.55,24.75l10.13-53.01
		C1238.01,2048.81,1214.55,2014.27,1178.78,2007.44z"/>
	<path class="st1" d="M1237.5,2137.4l-12.61-2.41l9.51-49.79c7.16-37.5-17.51-73.82-55-81c-37.46-7.07-73.82,17.52-80.98,55.02
		l-9.52,49.77l-12.62-2.41c-1.77-0.26-3.5,0.85-3.83,2.61c-0.35,1.77,0.82,3.48,2.6,3.84l45.98,8.79l-12.09,63.24
		c-0.35,1.77,0.82,3.48,2.6,3.84c0.2,0.03,0.41,0.05,0.61,0.05c1.55,0,2.92-1.1,3.21-2.66l12.09-63.24l28.2,5.39l28.21,5.39
		l-12.08,63.22c-0.35,1.77,0.82,3.48,2.6,3.84c0.2,0.03,0.41,0.05,0.61,0.05c1.55,0,2.92-1.1,3.21-2.66l12.08-63.22l30.14,5.76
		c0.01,0,0.02,0,0.03,0l15.8,3.02c0.2,0.03,0.41,0.05,0.61,0.05c1.55,0,2.92-1.1,3.21-2.66
		C1240.44,2139.47,1239.28,2137.76,1237.5,2137.4z M1104.85,2060.45c6.49-33.94,39.43-56.38,73.32-49.8
		c33.93,6.48,56.26,39.37,49.8,73.31l-9.52,49.79l-43.99-8.41l-79.11-15.13L1104.85,2060.45z"/>
</g>
<g>
	<g>
		<path class="st5" d="M3516.08,1423.94c-11.19,0-20.29-9.11-20.29-20.29s9.09-20.29,20.29-20.29c11.17,0,20.26,9.11,20.26,20.29
			S3527.25,1423.94,3516.08,1423.94z M3516.08,1389.93c-7.58,0-13.73,6.16-13.73,13.73s6.15,13.73,13.73,13.73
			c7.56,0,13.7-6.16,13.7-13.73S3523.63,1389.93,3516.08,1389.93z"/>
	</g>
	<g>
		<path class="st5" d="M3516.08,1182.74c-11.19,0-20.29-9.11-20.29-20.29c0-11.18,9.09-20.29,20.29-20.29
			c11.17,0,20.26,9.11,20.26,20.29C3536.34,1173.63,3527.25,1182.74,3516.08,1182.74z M3516.08,1148.72
			c-7.58,0-13.73,6.16-13.73,13.73s6.15,13.73,13.73,13.73c7.56,0,13.7-6.16,13.7-13.73S3523.63,1148.72,3516.08,1148.72z"/>
	</g>
	<g>
		<path class="st5" d="M3516.08,1389.93c-1.82,0-3.28-1.47-3.28-3.28v-207.19c0-1.81,1.46-3.28,3.28-3.28
			c1.82,0,3.28,1.47,3.28,3.28v207.19C3519.36,1388.45,3517.9,1389.93,3516.08,1389.93z"/>
	</g>
	<g>
		<path class="st3" d="M3516.07,1361.03L3516.07,1361.03c-15.77,0-28.56-12.79-28.56-28.56v-98.84c0-15.77,12.79-28.56,28.56-28.56
			h0c15.77,0,28.56,12.79,28.56,28.56v98.84C3544.63,1348.25,3531.84,1361.03,3516.07,1361.03z"/>
		<path class="st5" d="M3516.08,1364.31c-17.55,0-31.84-14.28-31.84-31.84v-98.84c0-17.56,14.29-31.84,31.84-31.84
			c17.55,0,31.84,14.28,31.84,31.84v98.84C3547.92,1350.03,3533.62,1364.31,3516.08,1364.31z M3516.08,1208.35
			c-13.93,0-25.28,11.35-25.28,25.28v98.84c0,13.93,11.35,25.28,25.28,25.28c13.93,0,25.28-11.35,25.28-25.28v-98.84
			C3541.36,1219.7,3530.01,1208.35,3516.08,1208.35z"/>
	</g>
</g>
<g>
	<path class="st5" d="M3516.08,1547.41c-1.82,0-3.28-1.47-3.28-3.28v-87.85c0-1.81,1.46-3.28,3.28-3.28c1.82,0,3.28,1.47,3.28,3.28
		v87.85C3519.36,1545.94,3517.9,1547.41,3516.08,1547.41z"/>
</g>
<g>
	<path class="st5" d="M3516.08,1115.33c-1.82,0-3.28-1.47-3.28-3.28V997.97c0-1.81,1.46-3.28,3.28-3.28c1.82,0,3.28,1.47,3.28,3.28
		v114.08C3519.36,1113.86,3517.9,1115.33,3516.08,1115.33z"/>
</g>
<g>
	<g>
		<path class="st3" d="M3484.54,926.1c-0.85,0-1.69-0.32-2.33-0.96c-1.26-1.28-1.26-3.36,0-4.64l63.07-63.07
			c1.28-1.28,3.38-1.28,4.66,0c1.26,1.28,1.26,3.36,0,4.64l-63.06,63.07C3486.24,925.78,3485.39,926.1,3484.54,926.1z"/>
	</g>
	<g>
		<path class="st3" d="M3547.61,926.1c-0.85,0-1.69-0.32-2.33-0.96l-63.07-63.07c-1.26-1.28-1.26-3.36,0-4.64
			c1.28-1.28,3.38-1.28,4.66,0l63.06,63.07c1.26,1.28,1.26,3.36,0,4.64C3549.3,925.78,3548.45,926.1,3547.61,926.1z"/>
	</g>
</g>
<g>
	<path class="st5" d="M3675.11,1026.54l-82.67,82.68c-0.61,0.61-0.95,1.45-0.95,2.32v432.59c0,1.81,1.46,3.28,3.28,3.28
		c1.82,0,3.28-1.47,3.28-3.28V1112.9l81.71-81.71C3677.89,1029.94,3676.36,1028.4,3675.11,1026.54z"/>
	<path class="st5" d="M3689.01,1037.57c-11.19,0-20.29-9.11-20.29-20.29c0-11.18,9.09-20.29,20.29-20.29s20.29,9.11,20.29,20.29
		C3709.29,1028.47,3700.2,1037.57,3689.01,1037.57z M3689.01,1003.56c-7.58,0-13.73,6.16-13.73,13.73s6.15,13.73,13.73,13.73
		c7.58,0,13.73-6.16,13.73-13.73S3696.59,1003.56,3689.01,1003.56z"/>
</g>
<g>
	<path class="st5" d="M3701.34,1183.92l-30.21,30.22c-0.61,0.61-0.95,1.45-0.95,2.32v327.67c0,1.81,1.46,3.28,3.28,3.28
		c1.82,0,3.28-1.47,3.28-3.28v-326.31l29.25-29.25C3704.12,1187.32,3702.59,1185.79,3701.34,1183.92z"/>
	<path class="st5" d="M3715.24,1194.96c-11.19,0-20.29-9.11-20.29-20.29c0-11.18,9.09-20.29,20.29-20.29
		c11.19,0,20.29,9.11,20.29,20.29C3735.52,1185.85,3726.43,1194.96,3715.24,1194.96z M3715.24,1160.94
		c-7.58,0-13.73,6.16-13.73,13.73s6.15,13.73,13.73,13.73c7.58,0,13.73-6.16,13.73-13.73S3722.82,1160.94,3715.24,1160.94z"/>
</g>
<g>
	<path class="st5" d="M3439.72,1109.22l-82.69-82.68c-1.25,1.87-2.78,3.4-4.65,4.65l81.73,81.71v431.23c0,1.81,1.46,3.28,3.28,3.28
		c1.82,0,3.28-1.47,3.28-3.28v-432.59C3440.67,1110.67,3440.33,1109.84,3439.72,1109.22z"/>
	<path class="st5" d="M3343.12,1037.57c-11.19,0-20.29-9.11-20.29-20.29c0-11.18,9.09-20.29,20.29-20.29s20.29,9.11,20.29,20.29
		C3363.41,1028.47,3354.32,1037.57,3343.12,1037.57z M3343.12,1003.56c-7.58,0-13.73,6.16-13.73,13.73s6.15,13.73,13.73,13.73
		c7.58,0,13.73-6.16,13.73-13.73S3350.7,1003.56,3343.12,1003.56z"/>
</g>
<g>
	<path class="st5" d="M3361,1214.14l-30.22-30.21c-1.24,1.85-2.77,3.38-4.62,4.62l29.26,29.26v326.31c0,1.81,1.46,3.28,3.28,3.28
		c1.82,0,3.28-1.47,3.28-3.28v-327.67C3361.97,1215.59,3361.64,1214.76,3361,1214.14z"/>
	<path class="st5" d="M3316.89,1194.96c-11.19,0-20.29-9.11-20.29-20.29c0-11.18,9.09-20.29,20.29-20.29s20.29,9.11,20.29,20.29
		C3337.18,1185.85,3328.09,1194.96,3316.89,1194.96z M3316.89,1160.94c-7.58,0-13.73,6.16-13.73,13.73s6.15,13.73,13.73,13.73
		c7.58,0,13.73-6.16,13.73-13.73S3324.47,1160.94,3316.89,1160.94z"/>
</g>
</svg>
