<?xml version="1.0" encoding="utf-8"?>
<!-- Generator: Adobe Illustrator 27.4.1, SVG Export Plug-In . SVG Version: 6.00 Build 0)  -->
<svg version="1.1" xmlns="http://www.w3.org/2000/svg" xmlns:xlink="http://www.w3.org/1999/xlink" x="0px" y="0px"
	 viewBox="0 0 700 700" style="enable-background:new 0 0 700 700;" xml:space="preserve">
<style type="text/css">
	.st0{fill-rule:evenodd;clip-rule:evenodd;fill:#FBC6D0;}
	.st1{fill-rule:evenodd;clip-rule:evenodd;fill:#EF3054;}
</style>
<g id="Layer_2">
	<ellipse class="st0" cx="332.53" cy="243.68" rx="130.98" ry="141.7"/>
</g>
<g id="Layer_1">
	<g>
		<path class="st1" d="M331,62c104.25,0,189.15,84.89,189.15,189.15c0,92.34-47.66,142.98-98.3,224.89L331,622l-90.85-145.96
			c-50.64-81.91-98.3-132.55-98.3-224.89C141.85,146.9,226.75,62,331,62L331,62z M331,139.45c58.09,0,104.25,47.66,104.25,104.25
			c0,58.09-46.17,104.25-104.25,104.25c-58.09,0-104.25-46.17-104.25-104.25C226.75,187.1,272.92,139.45,331,139.45z"/>
	</g>
</g>
</svg>
